<?xml version="1.0" encoding="UTF-8"?>
<svg id="Layer_1" data-name="Layer 1" xmlns="http://www.w3.org/2000/svg" xmlns:xlink="http://www.w3.org/1999/xlink" viewBox="32.34 45.87 479.42 144.19">
  <defs>
    <linearGradient id="GradientFill_1" data-name="GradientFill 1" x1="75.14" y1="117.86" x2="153.41" y2="117.85" gradientUnits="userSpaceOnUse">
      <stop offset="0" stop-color="#009ee3"/>
      <stop offset="1" stop-color="#fff"/>
    </linearGradient>
  </defs>
  <path d="M205.75,108.13l5.13-15.34h23.39l5.16,15.34h12.02l-21.92-62.2h-13.91l-21.89,62.2h12.03ZM213.91,83.74l8.41-25.06h.48l8.41,25.06h-17.3ZM315.9,45.93h-11.2v42.41h-.54l-29.28-42.41h-10.09v62.2h11.27v-42.36h.51l29.31,42.36h10.02v-62.2h0ZM333.3,108.13h11.27v-18.53l6.9-8.14,18.54,26.67h13.56l-24.27-34.29,24.06-27.91h-13.75l-24.27,28.58h-.76v-28.58h-11.27v62.2h0ZM435.57,45.93v40.85c0,7.68-6.16,12.14-14,12.14s-13.97-4.46-13.97-12.14v-40.85h-11.27v41.12c0,14.1,10.82,22.02,25.24,22.02s25.24-7.93,25.24-22.02v-41.12h-11.25ZM464.23,108.13h11.27v-22.78h11.47l12.22,22.78h12.57l-13.46-24.66c7.33-2.95,11.17-9.21,11.17-17.65,0-11.87-7.65-19.9-21.92-19.9h-23.33v62.2h0ZM475.5,76.01v-20.65h10.32c8.42,0,12.19,3.85,12.19,10.48s-3.76,10.18-12.12,10.18h-10.39Z" fill="#fff" fill-rule="evenodd"/>
  <path d="M243.05,127.8h-7.41v48.96h-.61l-34.01-48.96h-7.3v62.2h7.54v-48.83h.6l33.9,48.83h7.3v-62.2h0ZM263.94,190h38.03v-6.68h-30.49v-21.14h28.07v-6.67h-28.07v-21.02h30v-6.69h-37.54v62.2h0ZM320.92,127.8v62.2h7.06v-47.25h.6l19.44,47.25h6.8l19.44-47.25h.61v47.25h7.04v-62.2h-8.99l-21.14,51.64h-.73l-21.14-51.64h-8.99ZM407.3,190l6.26-17.62h25.16l6.24,17.62h7.9l-22.83-62.2h-7.77l-22.85,62.2h7.9ZM415.94,165.7l9.95-28.05h.48l9.96,28.05h-20.4Z" fill="#009ee3" fill-rule="evenodd"/>
  <g>
    <polygon points="189.46 45.87 163.49 45.87 137.15 144.17 135.89 144.17 94.37 45.87 70.97 45.87 32.34 190.06 58.47 190.06 84.79 91.87 85.98 91.87 127.59 190.06 150.82 190.06 189.46 45.87" fill="url(#GradientFill_1)" fill-rule="evenodd"/>
    <polygon points="66.79 136.14 98.61 136.14 107.42 156.93 61.22 156.93 66.79 136.14" fill="#009ee3" fill-rule="evenodd"/>
  </g>
</svg>