<?xml version="1.0" encoding="UTF-8"?>
<svg id="Layer_1" data-name="Layer 1" xmlns="http://www.w3.org/2000/svg" xmlns:xlink="http://www.w3.org/1999/xlink" viewBox="0 0 479.42 144.19">
  <defs>
    <linearGradient id="GradientFill_2" data-name="GradientFill 2" x1="42.8" y1="71.98" x2="121.06" y2="71.98" gradientUnits="userSpaceOnUse">
      <stop offset="0" stop-color="#009ee3"/>
      <stop offset="1" stop-color="#00305a"/>
    </linearGradient>
  </defs>
  <path d="M173.41,62.26l5.13-15.34h23.39l5.16,15.34h12.02L197.18.06h-13.91l-21.89,62.2h12.03ZM181.58,37.87l8.41-25.06h.48l8.41,25.06h-17.3ZM283.57.06h-11.2v42.41h-.54L242.54.06h-10.09v62.2h11.27V19.9h.51l29.31,42.36h10.02V.06h0ZM300.96,62.26h11.27v-18.53l6.9-8.14,18.54,26.67h13.56l-24.27-34.3L351.02.06h-13.75l-24.27,28.58h-.76V.06h-11.27v62.2h0ZM403.23.06v40.85c0,7.68-6.16,12.14-14,12.14s-13.97-4.46-13.97-12.14V.06h-11.27v41.12c0,14.1,10.82,22.02,25.24,22.02s25.24-7.93,25.24-22.02V.06h-11.25ZM431.89,62.26h11.27v-22.78h11.47l12.22,22.78h12.57l-13.46-24.66c7.33-2.95,11.17-9.21,11.17-17.65,0-11.87-7.65-19.9-21.92-19.9h-23.33v62.2h0ZM443.16,30.13V9.48h10.32c8.42,0,12.19,3.85,12.19,10.48s-3.76,10.18-12.12,10.18h-10.39Z" fill="#00305a" fill-rule="evenodd"/>
  <path d="M210.71,81.93h-7.41v48.96h-.61l-34.01-48.96h-7.3v62.2h7.54v-48.83h.6l33.9,48.83h7.3v-62.2h0ZM231.6,144.13h38.03v-6.68h-30.49v-21.14h28.07v-6.67h-28.07v-21.02h30v-6.69h-37.54v62.2h0ZM288.58,81.93v62.2h7.06v-47.25h.6l19.44,47.25h6.8l19.44-47.25h.61v47.25h7.04v-62.2h-8.99l-21.14,51.64h-.73l-21.14-51.64h-8.99ZM374.97,144.13l6.26-17.62h25.16l6.24,17.62h7.9l-22.83-62.2h-7.77l-22.85,62.2h7.9ZM383.6,119.83l9.95-28.05h.48l9.96,28.05h-20.4Z" fill="#009ee3" fill-rule="evenodd"/>
  <g>
    <polygon points="157.12 0 131.15 0 104.81 98.3 103.56 98.3 62.03 0 38.64 0 0 144.19 26.14 144.19 52.45 45.99 53.64 45.99 95.26 144.19 118.48 144.19 157.12 0" fill="url(#GradientFill_2)" fill-rule="evenodd"/>
    <polygon points="34.45 90.27 66.27 90.27 75.09 111.06 28.88 111.06 34.45 90.27" fill="#009ee3" fill-rule="evenodd"/>
  </g>
</svg>