<?xml version="1.0" encoding="UTF-8" standalone="no"?>
<!-- Created with Inkscape (http://www.inkscape.org/) -->

<svg
   xmlns:dc="http://purl.org/dc/elements/1.1/"
   xmlns:cc="http://creativecommons.org/ns#"
   xmlns:rdf="http://www.w3.org/1999/02/22-rdf-syntax-ns#"
   xmlns:svg="http://www.w3.org/2000/svg"
   xmlns="http://www.w3.org/2000/svg"
   xmlns:sodipodi="http://sodipodi.sourceforge.net/DTD/sodipodi-0.dtd"
   xmlns:inkscape="http://www.inkscape.org/namespaces/inkscape"
   width="180.19315"
   height="29.73065"
   viewBox="0 0 47.676101 7.8662345"
   version="1.1"
   id="svg9365"
   inkscape:version="0.92.0 r15299"
   sodipodi:docname="netcracker.svg">
  <defs
     id="defs9359">
    <clipPath
       id="clipPath9148"
       clipPathUnits="userSpaceOnUse">
      <path
         inkscape:connector-curvature="0"
         id="path9146"
         d="M 442.8,54.91 H 577.195 V 76.457 H 442.8 Z" />
    </clipPath>
  </defs>
  <sodipodi:namedview
     id="base"
     pagecolor="#ffffff"
     bordercolor="#666666"
     borderopacity="1.0"
     inkscape:pageopacity="0.0"
     inkscape:pageshadow="2"
     inkscape:zoom="5.0057704"
     inkscape:cx="89.596732"
     inkscape:cy="14.365385"
     inkscape:document-units="mm"
     inkscape:current-layer="layer1"
     showgrid="false"
     fit-margin-top="0"
     fit-margin-left="0"
     fit-margin-right="0"
     fit-margin-bottom="0"
     units="px"
     inkscape:window-width="1280"
     inkscape:window-height="744"
     inkscape:window-x="-4"
     inkscape:window-y="-4"
     inkscape:window-maximized="1" />
  <metadata
     id="metadata9362">
    <rdf:RDF>
      <cc:Work
         rdf:about="">
        <dc:format>image/svg+xml</dc:format>
        <dc:type
           rdf:resource="http://purl.org/dc/dcmitype/StillImage" />
        <dc:title></dc:title>
      </cc:Work>
    </rdf:RDF>
  </metadata>
  <g
     inkscape:label="Layer 1"
     inkscape:groupmode="layer"
     id="layer1"
     transform="translate(-127.78332,-233.97041)">
    <g
       id="g9404"
       transform="translate(0.13229157,-0.13228779)">
      <path
         d="m 174.81773,237.80602 h -0.46249 c -0.23742,0 -0.44838,0.0226 -0.63359,0.0677 -0.18521,0.0452 -0.34149,0.11748 -0.4699,0.21731 -0.12771,0.0995 -0.22507,0.23107 -0.29175,0.39476 -0.0663,0.16369 -0.0995,0.36442 -0.0995,0.60149 v 2.43417 h 0.92534 v -2.28459 c 0,-0.11395 0.006,-0.21238 0.0176,-0.29528 0.0117,-0.0832 0.0413,-0.15205 0.0893,-0.20673 0.0469,-0.0543 0.11359,-0.096 0.19896,-0.12453 0.0857,-0.0282 0.20391,-0.0427 0.35596,-0.0427 0.0758,0 0.17074,0.001 0.28469,0.004 0.11394,0.002 0.21801,0.006 0.31326,0.0109 l 0.14923,-0.7687 c -0.12347,-0.005 -0.24871,-0.007 -0.37712,-0.007 m -3.35033,1.50213 h -1.5307 c 0,-0.18062 0.01,-0.32879 0.0286,-0.44486 0.019,-0.11641 0.0572,-0.20884 0.11395,-0.27763 0.0568,-0.0688 0.13547,-0.11642 0.23495,-0.14252 0.0998,-0.0261 0.23036,-0.0392 0.39123,-0.0392 0.14746,0 0.27058,0.0131 0.37042,0.0392 0.0995,0.0261 0.1778,0.0677 0.23459,0.12453 0.0572,0.0572 0.0974,0.13299 0.12101,0.22789 0.024,0.0949 0.036,0.21096 0.036,0.3489 z m 0.53728,-1.21038 c -0.12559,-0.12312 -0.2921,-0.21908 -0.49812,-0.28787 -0.20673,-0.0688 -0.46637,-0.10336 -0.77964,-0.10336 -0.3369,0 -0.6156,0.0377 -0.83608,0.11359 -0.22084,0.0762 -0.39653,0.18874 -0.5267,0.33867 -0.13053,0.14922 -0.2219,0.33302 -0.27411,0.55104 -0.0526,0.21837 -0.0783,0.4699 -0.0783,0.75459 v 0.39864 c 0,0.26599 0.0247,0.502 0.0744,0.70837 0.0501,0.20638 0.13794,0.38065 0.26352,0.52282 0.12595,0.14252 0.29775,0.25188 0.51612,0.32773 0.21837,0.0759 0.49565,0.11395 0.83291,0.11395 h 0.60113 c 0.0974,0 0.19791,-0.001 0.30268,-0.004 0.10407,-0.002 0.22296,-0.006 0.3556,-0.0109 l 0.14253,-0.71156 c -0.31292,0.009 -0.57644,0.0141 -0.79023,0.0141 H 170.741 c -0.17074,0 -0.30833,-0.0116 -0.41275,-0.0353 -0.10442,-0.024 -0.18627,-0.0667 -0.24553,-0.12842 -0.0593,-0.0617 -0.0984,-0.1471 -0.11748,-0.25611 -0.019,-0.10901 -0.0286,-0.24906 -0.0286,-0.42016 h 1.85102 c 0.10407,0 0.19191,-0.01 0.26317,-0.0282 0.0709,-0.019 0.12912,-0.0572 0.17428,-0.1143 0.0452,-0.0568 0.0773,-0.13617 0.096,-0.23813 0.019,-0.10195 0.0286,-0.23389 0.0286,-0.39511 v -0.121 c 0,-0.19932 -0.0258,-0.38312 -0.078,-0.55139 -0.0526,-0.16828 -0.14146,-0.31433 -0.26705,-0.43815 m -3.02295,-0.27764 h -1.1176 l -1.40194,1.40229 V 236.578 h -0.92534 v 4.94348 h 0.92534 v -1.70815 l 1.53,1.70815 h 1.15323 l -1.86514,-2.04964 z m -5.00416,2.96863 c -0.16615,0 -0.30515,-0.0109 -0.41663,-0.0325 -0.11147,-0.0212 -0.19932,-0.0642 -0.26352,-0.12806 -0.0639,-0.0639 -0.10901,-0.15769 -0.13511,-0.28116 -0.0261,-0.12312 -0.0392,-0.28469 -0.0392,-0.48401 v -0.38453 c 0,-0.19897 0.012,-0.36054 0.0356,-0.48366 0.0236,-0.12347 0.0677,-0.21731 0.13194,-0.28116 0.0639,-0.0642 0.15028,-0.10689 0.25964,-0.12806 0.10901,-0.0215 0.25118,-0.0321 0.42721,-0.0321 0.085,0 0.2025,0.001 0.35208,0.004 0.14957,0.002 0.32385,0.008 0.52317,0.0176 l 0.14957,-0.74718 c -0.43673,-0.0141 -0.78563,-0.0215 -1.04633,-0.0215 -0.32738,0 -0.60396,0.0296 -0.82939,0.0893 -0.22542,0.0593 -0.40816,0.15522 -0.54786,0.28787 -0.14005,0.133 -0.24095,0.30621 -0.30233,0.51999 -0.0621,0.21343 -0.0928,0.47237 -0.0928,0.77541 v 0.38453 c 0,0.30832 0.0296,0.56867 0.0889,0.77964 0.0593,0.21096 0.15875,0.38311 0.2988,0.51576 0.14006,0.13299 0.32279,0.2293 0.54822,0.28822 0.22542,0.0593 0.50412,0.0893 0.83644,0.0893 0.11394,0 0.25611,-0.001 0.42721,-0.004 0.17074,-0.002 0.33196,-0.006 0.48366,-0.0109 l 0.14958,-0.74719 c -0.15205,0.005 -0.3228,0.008 -0.51259,0.0106 -0.1898,0.002 -0.36548,0.004 -0.52635,0.004 m -3.17605,0.0639 h -0.90417 c -0.23742,0 -0.3997,-0.0367 -0.48754,-0.11042 -0.0878,-0.0734 -0.13159,-0.18627 -0.13159,-0.33796 v -0.13547 c 0,-0.17533 0.0473,-0.29633 0.14252,-0.36301 0.0945,-0.0663 0.27729,-0.0995 0.54787,-0.0995 h 0.10654 c 0.15663,0 0.28257,0.008 0.37747,0.025 0.0945,0.0162 0.16827,0.0437 0.22084,0.0818 0.0522,0.0377 0.0861,0.0864 0.10301,0.1457 0.0166,0.0593 0.0251,0.13158 0.0251,0.21731 z m 0.49071,-2.74038 c -0.27023,-0.2039 -0.69497,-0.30621 -1.27388,-0.30621 -0.23742,0 -0.45544,10e-4 -0.65476,0.004 -0.19932,0.002 -0.36547,0.006 -0.49847,0.0102 l -0.14923,0.74754 c 0.09,0 0.1898,-0.001 0.29916,-0.004 0.10901,-0.002 0.21907,-0.005 0.33091,-0.007 0.11147,-0.002 0.22154,-0.004 0.3309,-0.004 h 0.2988 c 0.16122,0 0.29563,0.01 0.40217,0.0286 0.10689,0.0187 0.19085,0.0533 0.25259,0.10301 0.0614,0.0497 0.10548,0.11748 0.13159,0.20285 0.0264,0.0854 0.0395,0.19226 0.0395,0.32032 v 0.12806 c -0.0808,-0.0519 -0.2032,-0.0984 -0.36654,-0.13864 -0.16369,-0.0406 -0.36901,-0.0607 -0.61595,-0.0607 -0.49354,0 -0.85654,0.0893 -1.08902,0.26705 -0.23249,0.1778 -0.34855,0.46391 -0.34855,0.85796 v 0.15628 c 0,0.35595 0.10548,0.62865 0.3168,0.81844 0.21096,0.19015 0.57044,0.2847 1.07808,0.2847 h 1.16029 c 0.27975,0 0.4766,-0.0487 0.59055,-0.1457 0.11395,-0.097 0.1711,-0.27164 0.1711,-0.52317 v -1.77977 c 0,-0.43638 -0.13512,-0.7567 -0.40605,-0.96061 m -3.75567,-0.30621 c -0.23742,0 -0.44838,0.0226 -0.63359,0.0677 -0.18521,0.0452 -0.34149,0.11748 -0.4699,0.21731 -0.12771,0.0995 -0.22507,0.23107 -0.29175,0.39476 -0.0663,0.16369 -0.0995,0.36442 -0.0995,0.60149 v 2.43417 h 0.92533 v -2.28459 c 0,-0.11395 0.006,-0.21238 0.0176,-0.29528 0.0117,-0.0832 0.0413,-0.15205 0.0893,-0.20673 0.0469,-0.0543 0.11359,-0.096 0.19896,-0.12453 0.0857,-0.0282 0.20391,-0.0427 0.35596,-0.0427 0.0758,0 0.17074,0.001 0.28469,0.004 0.11394,0.002 0.21801,0.006 0.31326,0.0109 l 0.14923,-0.7687 c -0.12347,-0.005 -0.24871,-0.007 -0.37712,-0.007 z m -2.98768,2.98274 c -0.16616,0 -0.30515,-0.0109 -0.41663,-0.0325 -0.11148,-0.0212 -0.19932,-0.0642 -0.26352,-0.12806 -0.0639,-0.0639 -0.10901,-0.15769 -0.13512,-0.28116 -0.0257,-0.12312 -0.0392,-0.28469 -0.0392,-0.48401 v -0.38453 c 0,-0.19897 0.012,-0.36054 0.0356,-0.48366 0.0236,-0.12347 0.0677,-0.21731 0.13193,-0.28116 0.0639,-0.0642 0.15029,-0.10689 0.25965,-0.12806 0.10901,-0.0215 0.25153,-0.0321 0.42721,-0.0321 0.085,0 0.20285,0.001 0.35208,0.004 0.14957,0.002 0.32385,0.008 0.52316,0.0176 l 0.14958,-0.74718 c -0.43674,-0.0141 -0.78528,-0.0215 -1.04634,-0.0215 -0.32737,0 -0.60395,0.0296 -0.82902,0.0893 -0.22578,0.0593 -0.40817,0.15522 -0.54822,0.28787 -0.14005,0.133 -0.24095,0.30621 -0.30233,0.51999 -0.0621,0.21343 -0.0928,0.47237 -0.0928,0.77541 v 0.38453 c 0,0.30832 0.0296,0.56867 0.0889,0.77964 0.0593,0.21096 0.15875,0.38311 0.2988,0.51576 0.14005,0.13299 0.32279,0.2293 0.54822,0.28822 0.22542,0.0593 0.50412,0.0893 0.83643,0.0893 0.11395,0 0.25612,-0.001 0.42722,-0.004 0.17074,-0.002 0.33196,-0.006 0.48401,-0.0109 l 0.14922,-0.74719 c -0.15169,0.005 -0.32279,0.008 -0.51223,0.0106 -0.19015,0.002 -0.36583,0.004 -0.5267,0.004 m -2.23167,-2.20663 0.14958,-0.762 h -1.33068 v -1.01071 l -0.92534,0.14993 v 3.16724 c 0,0.27058 0.0215,0.49565 0.0639,0.67628 0.0427,0.18027 0.11994,0.32385 0.23142,0.43074 0.11148,0.10654 0.26317,0.18133 0.45544,0.22366 0.19226,0.0427 0.43779,0.0642 0.7366,0.0642 h 0.57679 l 0.14922,-0.7613 h -0.66181 c -0.12806,0 -0.23389,-0.008 -0.31644,-0.025 -0.0833,-0.0166 -0.14746,-0.0497 -0.19262,-0.0998 -0.0452,-0.0494 -0.0758,-0.11959 -0.0924,-0.20991 -0.0166,-0.0899 -0.0247,-0.20637 -0.0247,-0.34854 v -1.49472 z m -3.48544,0.72602 h -1.53035 c 0,-0.18062 0.009,-0.32879 0.0282,-0.44486 0.019,-0.11641 0.0571,-0.20884 0.11395,-0.27763 0.0572,-0.0688 0.13546,-0.11642 0.23495,-0.14252 0.0998,-0.0261 0.23036,-0.0392 0.39158,-0.0392 0.14711,0 0.27023,0.0131 0.37006,0.0392 0.0995,0.0261 0.1778,0.0677 0.23495,0.12453 0.0568,0.0572 0.0974,0.13299 0.12101,0.22789 0.0236,0.0949 0.0356,0.21096 0.0356,0.3489 z m 0.53728,-1.21038 c -0.12559,-0.12312 -0.29175,-0.21908 -0.49812,-0.28787 -0.20673,-0.0688 -0.46638,-0.10336 -0.77964,-0.10336 -0.33691,0 -0.6156,0.0377 -0.83609,0.11359 -0.22048,0.0762 -0.39617,0.18874 -0.52669,0.33867 -0.13053,0.14922 -0.2219,0.33302 -0.27411,0.55104 -0.0522,0.21837 -0.0783,0.4699 -0.0783,0.75459 v 0.39864 c 0,0.26599 0.025,0.502 0.0748,0.70837 0.0497,0.20638 0.13758,0.38065 0.26317,0.52282 0.12594,0.14252 0.29775,0.25188 0.51612,0.32773 0.21837,0.0759 0.49565,0.11395 0.8329,0.11395 h 0.60114 c 0.0974,0 0.19826,-10e-4 0.30268,-0.004 0.10442,-0.002 0.22296,-0.006 0.35595,-0.0109 l 0.14253,-0.71156 c -0.31327,0.009 -0.5768,0.0141 -0.79023,0.0141 h -0.56938 c -0.1711,0 -0.30833,-0.0116 -0.4131,-0.0353 -0.10407,-0.024 -0.18592,-0.0667 -0.24554,-0.12842 -0.0593,-0.0617 -0.0984,-0.1471 -0.11747,-0.25611 -0.0191,-0.10901 -0.0282,-0.24906 -0.0282,-0.42016 h 1.85067 c 0.10442,0 0.19226,-0.01 0.26317,-0.0282 0.0713,-0.019 0.12912,-0.0572 0.17427,-0.1143 0.0455,-0.0568 0.0773,-0.13617 0.0963,-0.23813 0.019,-0.10195 0.0282,-0.23389 0.0282,-0.39511 v -0.121 c 0,-0.19932 -0.0257,-0.38312 -0.078,-0.55139 -0.0526,-0.16828 -0.14146,-0.31433 -0.26705,-0.43815 m -4.40408,1.87219 -2.42711,-3.51614 h -0.8188 v 5.06766 h 0.94721 v -3.48757 l 2.41265,3.48757 h 0.82585 v -5.06766 h -0.9398 z"
         style="fill:#1d2e43;fill-opacity:1;fill-rule:nonzero;stroke:none;stroke-width:0.35277778"
         id="path9152"
         inkscape:connector-curvature="0" />
      <path
         d="m 138.08584,234.71018 -2.62326,6.49287 c -0.15486,0.38277 -0.52634,0.63359 -0.93909,0.63359 h 1.66441 c 0.64558,0 1.2266,-0.39193 1.46861,-0.9906 l 2.47897,-6.13586 z m -5.22464,0.47519 c 0.83009,0 1.56704,0.49707 1.87784,1.26647 l 1.15076,2.84833 0.51258,-1.26823 -0.78246,-1.93605 c -0.45649,-1.1303 -1.53952,-1.8609 -2.75872,-1.8609 -1.2192,0 -2.30187,0.7306 -2.75837,1.8609 l -2.31951,5.74075 h 1.02482 l 2.17558,-5.3848 c 0.3108,-0.7694 1.04775,-1.26647 1.87748,-1.26647 m 3.5e-4,1.26683 c 0.31045,0 0.58632,0.18626 0.70274,0.47413 l 1.64218,4.06471 0.51258,-1.26824 -1.27352,-3.15242 c -0.26247,-0.64911 -0.88406,-1.06821 -1.58398,-1.06821 -0.70026,0 -1.32221,0.4191 -1.58432,1.06821 l -2.1276,5.26626 h 1.02482 l 1.98402,-4.91031 c 0.11606,-0.28787 0.39229,-0.47413 0.70308,-0.47413 m 0.40923,0.59266 c -0.14888,-0.36794 -0.66993,-0.36794 -0.8188,0 l -1.93605,4.79178 h 1.02482 l 1.32045,-3.26848 1.01671,2.51636 v 0 c 0.10618,0.26317 0.36159,0.43533 0.64523,0.43533 h 3.5e-4 c 0.18168,0 0.35101,-0.0713 0.47801,-0.19121 z"
         style="fill:#4d76a4;fill-opacity:1;fill-rule:nonzero;stroke:none;stroke-width:0.35277778"
         id="path9156"
         inkscape:connector-curvature="0" />
    </g>
  </g>
</svg>
